<svg xmlns="http://www.w3.org/2000/svg"  viewBox="0 0 48 48" width="48px" height="48px"><path d="M 8.0371094 7.9902344 A 1.0001 1.0001 0 0 0 7.3339844 8.2539062 C 2.8764589 12.243475 1.1842379e-15 17.491136 0 24 C 0 30.508864 2.8122563 36.699063 7.3339844 40.746094 A 1.0001165 1.0001165 0 0 0 8.6660156 39.253906 C 4.5957437 35.610937 2 29.929136 2 24 C 2 18.070864 4.5315411 13.446525 8.6660156 9.7460938 A 1.0001 1.0001 0 0 0 8.0371094 7.9902344 z M 39.933594 7.9921875 A 1.0001 1.0001 0 0 0 39.333984 9.7460938 C 43.468459 13.446528 46 18.070864 46 24 C 46 29.929136 43.404256 35.610937 39.333984 39.253906 A 1.0001168 1.0001168 0 1 0 40.666016 40.746094 C 45.187744 36.699063 48 30.508864 48 24 C 48 17.491136 45.123541 12.243475 40.666016 8.2539062 A 1.0001 1.0001 0 0 0 39.933594 7.9921875 z M 22.314453 8.6484375 A 1.0001 1.0001 0 0 0 21.34375 9.7128906 C 21.34375 9.7128906 21.359466 9.8199433 21.291016 10.279297 C 21.222566 10.73865 21.065973 11.475481 20.705078 12.509766 C 19.983288 14.578335 18.445481 17.836179 15.185547 22.419922 C 11.678272 27.346871 12.709848 31.720073 14.697266 34.521484 C 16.684683 37.322896 19.515625 38.802734 19.515625 38.802734 A 1.0001 1.0001 0 0 0 20.849609 37.417969 C 20.849609 37.417969 18.33293 33.114296 20.876953 28.480469 C 21.632533 27.104134 22.623468 26.05387 24.101562 23.445312 C 24.224328 24.278139 24.286232 25.312849 24.037109 26.773438 A 1.0001 1.0001 0 0 0 24.035156 26.775391 C 23.753573 28.443643 23.837689 29.669431 24.287109 30.611328 C 24.73653 31.553225 25.604387 32.084144 26.384766 32.244141 C 27.095845 32.389929 27.717101 32.285974 28.228516 32.183594 C 28.672113 34.322776 27.98052 35.747489 26.964844 37.394531 L 27.03125 37.330078 C 27.04821 37.369258 27.730325 38.917957 27.730469 38.917969 C 27.730614 38.917981 28.203385 38.843619 28.244141 38.824219 C 28.284901 38.804819 28.29964 38.796412 28.3125 38.789062 A 1.0001 1.0001 0 0 0 28.447266 38.693359 C 28.446712 38.693796 28.461757 38.682574 28.460938 38.683594 A 1.0001 1.0001 0 0 0 28.474609 38.671875 C 28.486949 38.662275 28.494105 38.657275 28.515625 38.640625 C 28.587675 38.584885 28.701954 38.496449 28.847656 38.378906 C 29.139062 38.143821 29.558169 37.793446 30.042969 37.34375 C 31.012569 36.444359 32.250693 35.147412 33.289062 33.550781 C 34.327433 31.954151 35.176 30.044118 35.267578 27.923828 C 35.359158 25.803538 34.645227 23.505539 32.751953 21.341797 A 1.0001 1.0001 0 0 0 31.292969 21.292969 C 30.942347 21.64359 30.631205 21.914447 30.316406 22.191406 C 30.465548 21.347435 30.587157 20.306924 30.373047 19.042969 C 29.91724 16.351954 28.079316 12.935101 22.964844 8.8652344 A 1.0001 1.0001 0 0 0 22.314453 8.6484375 z M 23.005859 11.585938 C 26.742392 14.883335 28.081816 17.496301 28.400391 19.376953 C 28.578468 20.4282 28.487356 21.28707 28.347656 22.019531 C 28.207954 22.751992 27.962612 23.271832 28.001953 24.050781 A 1.0001 1.0001 0 0 0 29 25 C 29.833333 25 30.514276 24.614781 31.099609 24.175781 C 31.351572 23.986809 31.559275 23.75578 31.791016 23.542969 C 32.834132 25.040404 33.328403 26.472886 33.269531 27.835938 C 33.198951 29.470022 32.523037 31.062068 31.613281 32.460938 C 31.200939 33.094968 30.745593 33.475622 30.285156 34.009766 C 30.387816 32.993985 30.359266 31.913734 29.949219 30.683594 A 1.0001 1.0001 0 0 0 29.707031 30.292969 C 29.706691 30.292629 29.482909 30.12527 29.482422 30.125 C 29.481935 30.12473 29.351569 30.061652 29.298828 30.044922 C 29.193346 30.011462 29.120849 30.00411 29.064453 30 C 28.951662 29.9918 28.897489 30.00033 28.853516 30.005859 C 28.765566 30.016839 28.72782 30.027639 28.689453 30.037109 C 28.612723 30.056059 28.554055 30.07375 28.484375 30.09375 C 28.345014 30.13375 28.176384 30.18233 27.982422 30.224609 C 27.594497 30.309159 27.12123 30.353656 26.787109 30.285156 C 26.452988 30.216656 26.276501 30.137103 26.091797 29.75 C 25.907093 29.362897 25.765891 28.540669 26.007812 27.107422 C 26.379404 24.927067 26.214769 23.279457 25.933594 22.160156 C 25.652326 21.040477 25.197266 20.365234 25.197266 20.365234 A 1.0001 1.0001 0 0 0 23.476562 20.517578 C 21.137183 25.4852 20.312503 25.352863 19.123047 27.519531 C 17.598944 30.295614 17.593504 32.998348 17.96875 35.021484 C 17.404514 34.503895 16.834652 34.077269 16.328125 33.363281 C 14.670292 31.026443 13.710728 27.940129 16.814453 23.580078 C 20.161519 18.873821 21.79629 15.455353 22.59375 13.169922 C 22.837058 12.472628 22.893845 12.076015 23.005859 11.585938 z"/></svg>